PathFileType	4	(X/Y/Z)	c:/Users/goper/Files/vsCode/490R/osim_files/C08/C08_Fast_06.trc
DataRate	CameraRate	NumFrames	NumMarkers	Units                	OrigDataRate	OrigDataStartFrame	OrigNumFrames
250.00	250.00	8	36	mm	250.0	1649	2198
                Frame#	Time	LPSIS			LASIS			LTH1			LTH2			LTH3			LTH4			LLFE			LMFE			LSH1			LSH2			LSH3			LSH4			LLMAL			LMMAL			LCAL			LMTP5			LTOE			LMTP1			RPSIS			RASIS			RTH1			RTH2			RTH3			RTH4			RLFE			RMFE			RSH1			RSH2			RSH3			RSH4			RLMAL			RMMAL			RCAL			RMTP1			RTOE			RMTP5		
		X1	Y1	Z1	X2	Y2	Z2	X3	Y3	Z3	X4	Y4	Z4	X5	Y5	Z5	X6	Y6	Z6	X7	Y7	Z7	X8	Y8	Z8	X9	Y9	Z9	X10	Y10	Z10	X11	Y11	Z11	X12	Y12	Z12	X13	Y13	Z13	X14	Y14	Z14	X15	Y15	Z15	X16	Y16	Z16	X17	Y17	Z17	X18	Y18	Z18	X19	Y19	Z19	X20	Y20	Z20	X21	Y21	Z21	X22	Y22	Z22	X23	Y23	Z23	X24	Y24	Z24	X25	Y25	Z25	X26	Y26	Z26	X27	Y27	Z27	X28	Y28	Z28	X29	Y29	Z29	X30	Y30	Z30	X31	Y31	Z31	X32	Y32	Z32	X33	Y33	Z33	X34	Y34	Z34	X35	Y35	Z35	X36	Y36	Z36

1649	6.59200	0.00000	0.00000	0.00000	-3847.15234	1006.36987	218.59750	-3830.37256	731.57666	293.95169	-3860.00586	659.62701	281.27042	-3888.32251	591.54980	273.03958	-3934.67334	695.49554	263.75278	-3906.57275	546.61322	261.88135	-3933.81055	542.05096	135.80626	0.00000	0.00000	0.00000	0.00000	0.00000	0.00000	-3946.51343	435.59473	279.02005	0.00000	0.00000	0.00000	0.00000	0.00000	0.00000	0.00000	0.00000	0.00000	-3540.66040	1062.36316	118.23885	0.00000	0.00000	0.00000	-3664.18604	397.20767	-31.49924	0.00000	0.00000	0.00000	-3706.29956	1021.84741	122.27962	-3818.08350	1014.12036	-21.98636	-3722.29102	754.09082	-70.81644	-3713.64844	677.87067	-52.76643	-3697.47974	599.87994	-39.17119	-3785.35767	672.88831	-24.81891	-3688.84570	527.92999	-23.66769	0.00000	0.00000	0.00000	-3619.32788	455.07178	-38.27996	-3618.25684	408.36655	-46.47470	-3680.16455	446.45551	-31.53631	0.00000	0.00000	0.00000	0.00000	0.00000	0.00000	0.00000	0.00000	0.00000	-3500.61182	89.20248	85.29716	-3733.61914	64.86932	96.09508	0.00000	0.00000	0.00000	-3670.41406	47.20588	-23.53797
1650	6.59600	-3545.20044	1061.57153	118.41788	-3851.79248	1005.97687	218.59782	-3833.11768	730.22827	294.15707	-3862.47314	658.25061	281.38348	-3890.23486	589.97351	273.18301	-3937.30859	693.66138	263.90768	-3908.85278	545.13208	261.84042	-3936.25586	540.61420	135.57462	0.00000	0.00000	0.00000	0.00000	0.00000	0.00000	-3951.36377	434.75687	278.85037	0.00000	0.00000	0.00000	-3710.78760	1021.04730	122.48689	0.00000	0.00000	0.00000	0.00000	0.00000	0.00000	0.00000	0.00000	0.00000	-3666.24243	397.13828	-31.49380	0.00000	0.00000	0.00000	0.00000	0.00000	0.00000	-3822.46680	1013.68024	-21.95285	-3725.95068	753.82269	-70.92837	-3717.11133	677.63159	-52.92818	-3700.56274	599.66724	-39.28281	-3788.71631	672.37982	-24.97946	-3691.62793	527.77618	-23.76727	0.00000	0.00000	0.00000	-3621.66846	455.26404	-38.28496	-3620.24316	408.56583	-46.49717	-3682.39722	446.30954	-31.59104	0.00000	0.00000	0.00000	0.00000	0.00000	0.00000	0.00000	0.00000	0.00000	-3498.89526	90.58482	85.55486	0.00000	0.00000	0.00000	-4123.54883	67.48316	218.39980	0.00000	0.00000	0.00000
1651	6.60000	0.00000	0.00000	0.00000	-3856.43677	1005.60303	218.55949	-3835.84692	728.91028	294.31149	-3865.04028	656.96039	281.51859	-3892.28027	588.51526	273.33502	-3940.01392	691.82068	264.17987	-3911.13745	543.68066	261.83875	-3938.60474	539.19623	135.26175	0.00000	0.00000	0.00000	0.00000	0.00000	0.00000	-3956.10498	433.96161	278.63324	0.00000	0.00000	0.00000	0.00000	0.00000	0.00000	0.00000	0.00000	0.00000	-3715.54297	1020.28040	122.77856	0.00000	0.00000	0.00000	-3668.44263	397.13379	-31.53916	0.00000	0.00000	0.00000	0.00000	0.00000	0.00000	-3826.87183	1013.21509	-21.88133	-3729.60693	753.53479	-71.04450	-3720.62305	677.39124	-53.09451	-3703.78394	599.48828	-39.37740	-3792.20483	671.88477	-25.19459	-3694.50708	527.58435	-23.88649	0.00000	0.00000	0.00000	-3624.04419	455.39175	-38.29607	-3622.34277	408.66061	-46.51241	-3684.68774	446.18213	-31.68703	0.00000	0.00000	0.00000	-3592.36108	112.89899	102.67310	0.00000	0.00000	0.00000	-3499.03516	91.33157	85.20647	-3671.62280	46.92900	-23.06988	0.00000	0.00000	0.00000	-3734.63306	65.51669	96.02065
1652	6.60400	-3638.34424	1039.14648	150.41632	-3861.08545	1005.26398	218.52466	-3838.83789	727.74182	294.56668	-3867.69434	655.74030	281.62442	-3894.44287	587.16614	273.46432	-3942.81152	690.04419	264.49524	-3913.36987	542.25531	261.85577	-3940.87256	537.80475	134.94791	0.00000	0.00000	0.00000	0.00000	0.00000	0.00000	-3960.85474	433.34360	278.39056	0.00000	0.00000	0.00000	-4140.87207	69.95894	217.66463	0.00000	0.00000	0.00000	0.00000	0.00000	0.00000	0.00000	0.00000	0.00000	-3670.63428	397.04190	-31.55264	0.00000	0.00000	0.00000	-3633.15649	1041.32336	90.18758	-3831.37305	1012.80487	-21.77210	-3733.35034	753.22595	-71.12601	-3724.22485	677.10443	-53.24452	-3707.07568	599.28168	-39.50211	-3795.75171	671.38000	-25.38295	-3697.48511	527.38501	-23.97665	0.00000	0.00000	0.00000	-3626.52515	455.54617	-38.30641	-3624.53247	408.83472	-46.55014	-3687.17188	446.08728	-31.77909	0.00000	0.00000	0.00000	-3592.65112	113.31024	102.53083	0.00000	0.00000	0.00000	-3499.28540	91.94861	85.11708	0.00000	0.00000	0.00000	-3735.18286	65.86996	95.96568	0.00000	0.00000	0.00000
1653	6.60800	0.00000	0.00000	0.00000	-3865.75586	1004.93451	218.49684	-3841.82397	726.52753	294.79547	-3870.47095	654.56201	281.65137	-3896.68140	585.83209	273.50443	-3945.71558	688.36853	264.83722	-3915.59717	540.83130	261.84821	-3943.01709	536.38116	134.56671	0.00000	0.00000	0.00000	0.00000	0.00000	0.00000	-3965.51636	432.84067	278.14557	0.00000	0.00000	0.00000	0.00000	0.00000	0.00000	0.00000	0.00000	0.00000	-3642.72754	1038.52686	150.67841	0.00000	0.00000	0.00000	-3672.78320	396.88135	-31.42240	0.00000	0.00000	0.00000	-3638.68115	1040.35791	91.68795	-3835.85938	1012.35437	-21.64964	-3737.14844	752.89783	-71.24017	-3727.94556	676.88556	-53.43268	-3710.48560	599.08350	-39.60958	-3799.36377	670.86615	-25.60740	-3700.60449	527.18713	-24.07433	0.00000	0.00000	0.00000	-3629.12671	455.65411	-38.31811	-3626.87939	409.02484	-46.56730	-3689.69653	445.95001	-31.82911	0.00000	0.00000	0.00000	-3592.89307	113.77909	102.51480	0.00000	0.00000	0.00000	0.00000	0.00000	0.00000	-4289.87646	325.29889	167.95807	0.00000	0.00000	0.00000	0.00000	0.00000	0.00000
1654	6.61200	-3647.35254	1037.77930	150.87918	-3870.46680	1004.65430	218.47992	-3844.97510	725.37677	295.02100	-3873.37402	653.42828	281.62073	-3899.06470	584.56299	273.48846	-3948.80225	686.77222	265.20578	-3917.90210	539.41321	261.81195	-3945.05029	534.97986	134.15814	0.00000	0.00000	0.00000	0.00000	0.00000	0.00000	-3970.03613	432.38684	277.85901	0.00000	0.00000	0.00000	-4156.53857	72.74888	216.86781	0.00000	0.00000	0.00000	0.00000	0.00000	0.00000	0.00000	0.00000	0.00000	-3674.94287	396.65259	-31.23635	0.00000	0.00000	0.00000	-3643.30762	1039.69153	91.97330	-3840.38306	1011.93616	-21.51307	-3741.01099	752.57452	-71.31761	-3731.67285	676.57166	-53.56371	-3713.91772	598.82025	-39.69131	-3803.05273	670.35669	-25.80210	-3703.79956	526.94952	-24.17032	0.00000	0.00000	0.00000	-3631.85498	455.82950	-38.35667	-3629.21411	409.13080	-46.64168	-3692.23413	445.75668	-31.87716	0.00000	0.00000	0.00000	0.00000	0.00000	0.00000	-3736.21558	66.49801	95.90316	0.00000	0.00000	0.00000	0.00000	0.00000	0.00000	-3671.78467	46.68346	-23.27996	0.00000	0.00000	0.00000
1655	6.61600	0.00000	0.00000	0.00000	-3875.16528	1004.35394	218.45261	-3848.34717	724.37616	295.19196	-3876.38257	652.34430	281.56238	-3901.62939	583.36005	273.40112	-3951.96729	685.23914	265.54062	-3920.34790	538.07898	261.71411	-3947.12891	533.63824	133.67065	0.00000	0.00000	0.00000	0.00000	0.00000	0.00000	-3974.34619	431.99106	277.61847	0.00000	0.00000	0.00000	0.00000	0.00000	0.00000	0.00000	0.00000	0.00000	-4302.14746	323.52719	166.96535	0.00000	0.00000	0.00000	-3677.12061	396.41104	-30.93792	0.00000	0.00000	0.00000	-3647.97559	1039.06384	92.23452	-3844.90991	1011.48376	-21.34675	-3744.91724	752.24677	-71.39867	-3735.48315	676.25952	-53.70411	-3717.43335	598.49213	-39.74697	-3806.83301	669.85254	-25.98557	-3707.12061	526.72015	-24.24885	0.00000	0.00000	0.00000	-3634.62622	455.93915	-38.36123	-3631.82446	409.40472	-46.71950	-3695.05005	445.66623	-31.92303	0.00000	0.00000	0.00000	0.00000	0.00000	0.00000	-3736.89941	66.93313	95.82371	0.00000	0.00000	0.00000	0.00000	0.00000	0.00000	0.00000	0.00000	0.00000	-3502.56958	93.48960	84.58218
1656	6.62000	-3656.77002	1036.54260	151.48773	-3879.87036	1004.07275	218.42070	-3851.73047	723.33820	295.28043	-3879.65112	651.35254	281.47153	-3904.36963	582.20941	273.28796	-3955.33862	683.82935	265.87518	-3923.05200	536.86035	261.61166	-3949.19556	532.34979	133.20755	0.00000	0.00000	0.00000	0.00000	0.00000	0.00000	-3978.46997	431.61691	277.41031	0.00000	0.00000	0.00000	-3671.84839	46.49841	-23.47618	0.00000	0.00000	0.00000	0.00000	0.00000	0.00000	0.00000	0.00000	0.00000	-3679.34888	396.11905	-30.58611	0.00000	0.00000	0.00000	-3651.24243	1038.73694	91.30442	-3849.42041	1011.01379	-21.18535	-3748.85498	751.85901	-71.45048	-3739.38916	675.97021	-53.84953	-3721.12817	598.26892	-39.83111	-3810.68677	669.32629	-26.16911	-3710.51855	526.45569	-24.30177	0.00000	0.00000	0.00000	-3637.53198	456.08542	-38.35224	-3634.38550	409.57825	-46.71886	-3697.79858	445.50262	-31.96724	0.00000	0.00000	0.00000	0.00000	0.00000	0.00000	-3737.62817	67.39608	95.78767	0.00000	0.00000	0.00000	0.00000	0.00000	0.00000	-3483.55103	37.87881	100.60377	0.00000	0.00000	0.00000
